PathFileType	4	(X/Y/Z)	D:\Share\Shared_Data\Ergonomics\Sit To Stand Pertubation\S2\Perturbed.trc
DataRate	CameraRate	NumFrames	NumMarkers	Units	OrigDataRate	OrigDataStartFrame	OrigNumFrames	
100	100	14	18	m	100	18656	191
Frame#	Time	R_Toe			R_ASIS			R_Pelvis			V_Sacral			L_Pelvis			L_ASIS			Clavical			R_Acromium			L_Acromium			Sternum			Torso			R_Thigh_Med			R_Thigh_Lat			R_Thigh			R_Shank_Med			R_Shank_Lat			R_Shank			R_Heel			
		X1	Y1	Z1	X2	Y2	Z2	X3	Y3	Z3	X4	Y4	Z4	X5	Y5	Z5	X6	Y6	Z6	X7	Y7	Z7	X8	Y8	Z8	X9	Y9	Z9	X10	Y10	Z10	X11	Y11	Z11	X12	Y12	Z12	X13	Y13	Z13	X14	Y14	Z14	X15	Y15	Z15	X16	Y16	Z16	X17	Y17	Z17	X18	Y18	Z18	

18656	186.55	0.41505365	0.071862015	0.1354687	0.18758025	0.87309387	0.13103391	0.12465479	0.91363782	0.17896454	-0.028680243	0.93535986	0.024710575	0.075139938	0.93031317	-0.16078354	0.1666516	0.89417761	-0.13726764	0.42067114	1.2017567	-0.011821644	0.36727509	1.2760953	0.19607782	0.34816943	1.2925212	-0.19188422	0.37398947	1.0480289	-0.011774951	0.40514575	1.1701145	-0.12265486	0.39715695	0.48709784	0.098818123	0.37899689	0.5049216	0.19617177	0.33619516	0.68986212	0.16630214	0.28135449	0.11046931	0.10078084	0.26012424	0.09735907	0.19405627	0.33944919	0.35715747	0.21833609	0.17772319	0.055297054	0.1359028
18657	186.56	0.41506543	0.07167701	0.13544418	0.19131633	0.87906281	0.13100607	0.12829684	0.91903571	0.17890762	-0.025037167	0.94104999	0.02469799	0.078307137	0.93567816	-0.16091541	0.17011343	0.90025201	-0.1375714	0.42120505	1.2107122	-0.011611874	0.36725882	1.2842343	0.19635806	0.34776755	1.3007338	-0.19168478	0.37587741	1.0565204	-0.011743919	0.40595444	1.1787777	-0.12268576	0.39570657	0.48742627	0.097962944	0.37796109	0.50540662	0.19512013	0.33805594	0.6906864	0.16556973	0.28126559	0.11036218	0.10063672	0.26014981	0.097423126	0.19397227	0.33857404	0.35761996	0.21770697	0.17773268	0.055295738	0.13589955
18658	186.57	0.41507822	0.071482658	0.13543639	0.19503557	0.88499249	0.13096429	0.13196683	0.9243653	0.1788147	-0.021378466	0.94663708	0.024634115	0.081508385	0.94095758	-0.16107806	0.1736048	0.9062804	-0.13788022	0.42174573	1.2196012	-0.011397877	0.36717361	1.2923033	0.19662537	0.34732025	1.3088535	-0.19148444	0.37769739	1.0649458	-0.011711891	0.406703	1.1873641	-0.12270345	0.39416733	0.48776736	0.097128166	0.37684286	0.50591422	0.19410066	0.3398331	0.69147382	0.1648394	0.28115356	0.11023994	0.10047903	0.2601658	0.097494965	0.19387286	0.33763406	0.35808453	0.21708311	0.17774194	0.055292679	0.13589218
18659	186.58	0.41510199	0.071243011	0.13544928	0.19875479	0.89087506	0.13090826	0.13565131	0.92962177	0.17868643	-0.017706173	0.95211346	0.02452231	0.08475032	0.94614221	-0.16126707	0.17711642	0.9122569	-0.13818224	0.42228854	1.2284146	-0.011185312	0.36702213	1.3002994	0.19687477	0.34682962	1.3168787	-0.19128416	0.37945142	1.0733015	-0.011681434	0.40740463	1.1958771	-0.1227045	0.3925481	0.48812448	0.096330017	0.37564139	0.50644739	0.19312798	0.34152496	0.69222693	0.16412993	0.28103525	0.11010103	0.10030427	0.26017868	0.097579247	0.19374608	0.3366351	0.35855325	0.21647659	0.17775481	0.055293037	0.13587947
18660	186.59	0.4151449	0.070930107	0.13548419	0.2024921	0.89670251	0.13083791	0.13931839	0.93480164	0.1785256	-0.014022932	0.95747144	0.024368204	0.088038017	0.95122424	-0.16147784	0.18063269	0.91817249	-0.13846461	0.42282294	1.2371412	-0.010977775	0.3668074	1.3082169	0.19710193	0.34629984	1.3248051	-0.19108597	0.38115088	1.0815796	-0.011653864	0.40807501	1.2043162	-0.12268874	0.39085358	0.48850003	0.095579735	0.37435544	0.50700772	0.19221259	0.34312842	0.69294452	0.16345621	0.28092685	0.10994501	0.10010967	0.26019495	0.097680252	0.19358171	0.33558148	0.35902844	0.21589738	0.17777394	0.055302326	0.1358607
18661	186.6	0.41521106	0.07053138	0.1355397	0.20624863	0.90246606	0.13075163	0.14291748	0.93989923	0.17833984	-0.010330593	0.96270374	0.024177109	0.091373817	0.95619806	-0.16170714	0.18413243	0.92401294	-0.13871625	0.4233356	1.2457695	-0.010776905	0.36653232	1.3160485	0.19730479	0.34573672	1.3326234	-0.19089188	0.38281424	1.089769	-0.011630529	0.408728	1.2126738	-0.12266098	0.38908698	0.48889429	0.094883141	0.3729834	0.50759424	0.19136005	0.34463861	0.6936214	0.16282732	0.28084055	0.1097726	0.099894005	0.26021945	0.097800888	0.19337352	0.33447464	0.35951184	0.21535318	0.17779999	0.055324615	0.1358356
18662	186.61	0.41529916	0.070052856	0.13561134	0.20999507	0.90815393	0.13064505	0.14639886	0.94490399	0.17814085	-0.0066300416	0.96780377	0.023951361	0.094757851	0.96105933	-0.16195335	0.18759201	0.92975781	-0.1389304	0.42381366	1.2542863	-0.010583101	0.36619858	1.3237847	0.19748413	0.34514642	1.3403224	-0.19070299	0.38446375	1.0978574	-0.011612843	0.4093736	1.2209376	-0.12262859	0.38725348	0.48930594	0.094240807	0.37152414	0.50820273	0.19057065	0.34604886	0.69424969	0.1622459	0.28078293	0.10958594	0.099658134	0.26025455	0.097941902	0.19312079	0.33331323	0.36000406	0.21484836	0.17783122	0.055362019	0.13580472
18663	186.62	0.4154024	0.06951693	0.13569244	0.21368152	0.91375189	0.13051164	0.14974399	0.94979974	0.17794139	-0.0029218454	0.97276587	0.023690128	0.09818898	0.96580457	-0.16221669	0.19099232	0.9353808	-0.13910722	0.42424786	1.2626799	-0.010396107	0.36580621	1.3314152	0.19764265	0.34453421	1.3478884	-0.1905206	0.3861217	1.1058322	-0.01160123	0.41001584	1.2290927	-0.12259866	0.38536084	0.48973212	0.093649445	0.36997757	0.50882632	0.1898401	0.34735153	0.6948205	0.16170895	0.28075516	0.10938901	0.099405159	0.26029996	0.098101402	0.19282945	0.33209311	0.36050369	0.21438272	0.1778638	0.055415154	0.1357693
18664	186.63	0.4155105	0.06895636	0.13577692	0.21726564	0.91924457	0.13034521	0.15297859	0.9545675	0.17775256	0.00079331893	0.97758502	0.02339152	0.10166441	0.97043042	-0.16249832	0.19432768	0.94085492	-0.13925461	0.42463397	1.2709391	-0.010215478	0.3653541	1.3389285	0.19778316	0.34390344	1.3553087	-0.19034724	0.38780624	1.1136805	-0.011594485	0.41065176	1.2371243	-0.12257672	0.38341446	0.49016849	0.093103851	0.36834427	0.50945615	0.18916159	0.34854053	0.69532654	0.16120879	0.28075519	0.10918745	0.09913913	0.2603533	0.098274803	0.19251047	0.3308093	0.36100812	0.2139516	0.17789259	0.055483864	0.13573151
18665	186.64	0.41561371	0.068406906	0.13586053	0.22073151	0.92462012	0.13014139	0.15615218	0.95919171	0.1775802	0.0045146246	0.98225696	0.023054482	0.10517871	0.97493384	-0.16279932	0.19761407	0.9461604	-0.13938571	0.42497247	1.2790531	-0.010041135	0.36484006	1.3463113	0.19790764	0.34325491	1.3625708	-0.19018622	0.38952795	1.1213914	-0.011590804	0.41127386	1.2450189	-0.12256627	0.38141547	0.4906098	0.092597794	0.36662512	0.51008255	0.18852798	0.34961349	0.6957627	0.16073474	0.28078125	0.10898798	0.09886338	0.26041074	0.098455864	0.19217642	0.32945688	0.36151453	0.21354733	0.17791237	0.055568321	0.13569383
18666	186.65	0.41570477	0.067899879	0.13593959	0.22409015	0.92986975	0.12989977	0.15930344	0.96366754	0.17742143	0.0082411289	0.9867774	0.02267943	0.10872386	0.97931281	-0.16311879	0.20088998	0.95129187	-0.13951567	0.42526633	1.2870115	-0.0098734665	0.36426147	1.3535516	0.19801794	0.34258734	1.3696635	-0.19004013	0.3912872	1.1289551	-0.011590043	0.41187479	1.2527649	-0.1225686	0.37936322	0.49105075	0.092124054	0.36482147	0.51069653	0.18793307	0.35057407	0.6961275	0.16027698	0.28083551	0.10879755	0.098580193	0.26046762	0.098638443	0.19183798	0.32803265	0.3620209	0.21316138	0.17791962	0.055669952	0.13565897
18667	186.66	0.41577939	0.067456856	0.13601007	0.2273774	0.93498773	0.12962825	0.16244455	0.96799994	0.1772668	0.011971334	0.99114246	0.022268356	0.11229029	0.98356604	-0.16345309	0.20420665	0.95625714	-0.13965898	0.42551923	1.2948054	-0.0097127714	0.36361603	1.3606373	0.198116	0.34189844	1.3765789	-0.18991034	0.39307449	1.1363635	-0.01159492	0.41244989	1.2603521	-0.12258341	0.37726031	0.49148694	0.091674644	0.36293665	0.51129282	0.18737224	0.35143369	0.69642493	0.15983107	0.28092471	0.1086228	0.098292297	0.26051965	0.098818443	0.19150249	0.32653589	0.36252621	0.21278665	0.17791435	0.055790054	0.13562869
18668	186.67	0.4158353	0.067087929	0.1360694	0.23065038	0.9399696	0.12934543	0.16556949	0.97219592	0.17710655	0.015702568	0.99534711	0.021824635	0.11586822	0.98769244	-0.1637973	0.2076133	0.96107098	-0.13982617	0.4257338	1.3024266	-0.0095591536	0.36290256	1.3675576	0.19820383	0.34118491	1.3833097	-0.18979672	0.39487347	1.1436095	-0.011610044	0.41299661	1.2677714	-0.12261011	0.37511572	0.49191537	0.091242722	0.36097821	0.51187103	0.18684303	0.35220956	0.69666431	0.15939902	0.2810549	0.10846964	0.098004845	0.26056262	0.09899408	0.19117427	0.32496893	0.36303012	0.21241913	0.17790112	0.055926243	0.13560356
18669	186.68	0.4158721	0.066792908	0.13611842	0.23396967	0.94481213	0.12907405	0.16866992	0.97625745	0.17693459	0.019431303	0.99938477	0.021352295	0.11944892	0.99169055	-0.16414836	0.211147	0.96574908	-0.14002144	0.42591101	1.3098696	-0.0094139681	0.36212186	1.3743035	0.19828363	0.34044281	1.389851	-0.189698	0.39666626	1.1506877	-0.011640049	0.41351334	1.2750151	-0.12264845	0.37294391	0.4923342	0.09082518	0.35895889	0.51243585	0.18634467	0.35291934	0.69685779	0.15898572	0.28122336	0.10834145	0.097726044	0.26059235	0.099164528	0.19085614	0.32333725	0.36353287	0.21205838	0.17788878	0.056070324	0.13558247
